<?xml version="1.0" encoding="UTF-8"?> <svg xmlns="http://www.w3.org/2000/svg" xmlns:xlink="http://www.w3.org/1999/xlink" version="1.1" width="140px" height="140px" viewBox="0 0 140.0 140.0"><defs><clipPath id="i0"><path d="M30,0 L30,109.998437 L127.454197,109.998437 C114.804853,128.134159 93.7881344,140 70,140 L0,140 L0,0 L30,0 Z"></path></clipPath><clipPath id="i1"><path d="M106.79535,0 C104.644707,6.8473575 101.470227,13.2413112 97.4513269,19.0024449 L0,18.9998926 L19.0042016,0 Z"></path></clipPath><clipPath id="i2"><path d="M19.0042016,0 L19.0042016,91.0001074 L0,110 L0,0 L19.0042016,0 Z"></path></clipPath><clipPath id="i3"><path d="M21.004368,0 C59.6643005,0 91.004368,31.3400675 91.004368,70 C91.004368,77.315013 89.882329,84.3679598 87.8009702,90.9961212 L0.00856965703,90.9961212 L0,0 Z"></path></clipPath></defs><g transform=""><g transform=""><g transform=""><g clip-path="url(#i0)"><polygon points="0,0 127.454197,0 127.454197,140 0,140 0,0" stroke="none" fill="#59B8E8"></polygon></g></g><g transform="translate(30.000000000000007 91.00010739287396)"><g clip-path="url(#i1)"><polygon points="0,0 106.79535,0 106.79535,19.0024449 0,19.0024449 0,0" stroke="none" fill="#F2F2F3"></polygon></g></g><g transform="translate(29.999999999999975 7.105427357601002e-15)"><g clip-path="url(#i2)"><polygon points="0,0 19.0042016,0 19.0042016,110 0,110 0,0" stroke="none" fill="#E7E7E8"></polygon></g></g><g transform="translate(48.99563196562008 7.105427357601002e-15)"><g clip-path="url(#i3)"><polygon points="0,0 91.004368,0 91.004368,90.9961212 0,90.9961212 0,0" stroke="none" fill="#E63946"></polygon></g></g></g></g></svg> 